<svg width="17" height="16" viewBox="0 0 17 16" fill="none" xmlns="http://www.w3.org/2000/svg">
<path d="M2.30723 2.46358C2.78405 2.01324 3.94962 1.27152 4.90326 0.821192C6.25676 0.26554 6.86117 0.148065 8.61186 0C9.69796 0 11.0754 0.15894 11.6582 0.344371C12.241 0.556291 13.1682 1.00662 13.698 1.35099C14.2542 1.69536 14.996 2.51656 15.3403 3.17881C15.7907 3.94702 16.0026 4.7947 16.0291 5.56291C16.0291 6.30464 15.7907 7.12583 15.4198 7.78808C15.0489 8.45033 14.4132 9.0596 13.645 9.45695C12.6913 9.96026 12.0556 10.0662 10.4662 10.0662C9.38007 10.0397 8.2675 9.96026 8.02909 9.8543C7.63174 9.69536 7.79067 9.50993 8.82378 8.74172C9.56551 8.18543 10.3072 7.33775 10.6781 6.62252C11.0225 5.93377 11.2609 4.92715 11.2609 4.23841C11.2785 3.44371 11.1019 2.79912 10.7311 2.30464C10.3337 1.77483 9.98935 1.5894 9.27411 1.5894C8.55888 1.5894 8.08206 1.82781 7.20789 2.62252C6.43968 3.33775 5.96286 4.07947 5.64498 5.0596C5.02686 7.20989 5.08695 8.25358 5.56551 10.0662C5.80392 10.7285 6.49266 11.7616 7.10193 12.3974C7.79068 13.0861 8.71782 13.6954 9.53901 13.9603C10.2542 14.2252 11.6582 14.4371 12.6384 14.4371C13.645 14.4371 14.4397 14.4636 14.4397 14.4901C14.4397 14.543 13.7509 14.8874 12.9297 15.2848C11.5912 15.8275 11.0898 15.9009 8.74431 16C6.75756 16 6.07628 15.7707 4.50591 15.1788C2.39272 14.0397 1.86465 13.5099 0.717825 11.5232C0.121124 10.4895 -0.0219581 9.66868 0.00259402 8.07947C0.042212 5.51507 0.468145 4.2851 2.30723 2.46358Z" fill="#CEFF7B"/>
</svg>
