<svg width="21" height="20" viewBox="0 0 21 20" fill="none" xmlns="http://www.w3.org/2000/svg">
<path d="M9.66602 12.4993H11.3327V14.166H9.66602V12.4993ZM9.66602 5.83268H11.3327V10.8327H9.66602V5.83268ZM10.491 1.66602C5.89102 1.66602 2.16602 5.39935 2.16602 9.99935C2.16602 14.5993 5.89102 18.3327 10.491 18.3327C15.0993 18.3327 18.8327 14.5993 18.8327 9.99935C18.8327 5.39935 15.0993 1.66602 10.491 1.66602ZM10.4993 16.666C6.81602 16.666 3.83268 13.6827 3.83268 9.99935C3.83268 6.31602 6.81602 3.33268 10.4993 3.33268C14.1827 3.33268 17.166 6.31602 17.166 9.99935C17.166 13.6827 14.1827 16.666 10.4993 16.666Z" fill="#D03E00"/>
</svg>
