<svg width="14" height="47" viewBox="0 0 14 47" fill="none" xmlns="http://www.w3.org/2000/svg">
<path d="M12.7002 46.7C13.0868 46.7 13.4002 46.3866 13.4002 46C13.4002 45.6134 13.0868 45.3 12.7002 45.3V46.7ZM0.000195324 0V38.3059H1.4002V0H0.000195324ZM0.000195324 38.3059C0.000195324 41.8536 1.0505 44.0468 2.93981 45.2928C4.75612 46.4907 7.20054 46.7 9.7002 46.7V45.3C7.19985 45.3 5.14427 45.0696 3.71058 44.1241C2.34989 43.2268 1.4002 41.573 1.4002 38.3059H0.000195324ZM9.7002 46.7H12.7002V45.3H9.7002V46.7Z" fill="url(#paint0_linear_2221_8465)"/>
<defs>
<linearGradient id="paint0_linear_2221_8465" x1="6.7002" y1="0" x2="6.7002" y2="46" gradientUnits="userSpaceOnUse">
<stop stop-color="#EFF5E9"/>
<stop offset="1" stop-color="#F2F8F7"/>
</linearGradient>
</defs>
</svg>
